After the birth of Renesmee, the Cullens gather other vampire clans in order to protect the child from a false allegation that puts the family in front of the Volturi.

Genre:Adventure | Drama | Fantasy
 Language:English
 IMDb: http://www.imdb.com/title/tt1673434/
 Source:DvD Thanks
 Encoder:Tony
 
Format : AVI
 Format/Info : Audio Video Interleave
 File size : 1.39 GiB
 Duration : 1h 55mn
 Overall bit rate : 1 722 Kbps
 
Video
 ID : 0
 Format : MPEG-4 Visual
 Format profile : Advanced Simple@L5
 Format settings, BVOP : 1
 Format settings, QPel : No
 Format settings, GMC : No warppoints
 Format settings, Matrix : Default (H.263)
 Codec ID : XVID
 Codec ID/Hint : XviD
 Duration : 1h 55mn
 Bit rate : 1 327 Kbps
 Width : 640 pixels
 Height : 272 pixels
 Display aspect ratio : 2.35:1
 Frame rate : 29.970 fps
 Color space : YUV
 Chroma subsampling : 4:2:0
 Bit depth : 8 bits
 Scan type : Progressive
 Compression mode : Lossy
 Bits/(Pixel*Frame) : 0.254
 Stream size : 1.07 GiB (77%)
 Writing library : XviD 1.2.1 (UTC 2008-12-04)
 
Audio
 ID : 1
 Format : AC-3
 Format/Info : Audio Coding 3
 Mode extension : CM (complete main)
 Codec ID : 2000
 Duration : 1h 55mn
 Bit rate mode : Constant
 Bit rate : 384 Kbps
 Channel(s) : 6 channels
 Channel positions : Front: L C R, Side: L R, LFE
 Sampling rate : 48.0 KHz
 Bit depth : 16 bits
 Compression mode : Lossy
 Stream size : 317 MiB (22%)
 Alignment : Aligned on interleaves
 Interleave, duration : 33 ms (1.00 video frame)
 Interleave, preload duration : 512 ms
 
http://img441.imageshack.us/img441/9293/vlcsnap2012113012h46m44.png 
http://img94.imageshack.us/img94/1751/vlcsnap2012113012h47m38.png 
http://img803.imageshack.us/img803/4295/vlcsnap2012113012h48m33.png